<?xml version="1.0" standalone="no"?><!DOCTYPE svg PUBLIC "-//W3C//DTD SVG 1.1//EN" "http://www.w3.org/Graphics/SVG/1.1/DTD/svg11.dtd" ><svg xmlns="http://www.w3.org/2000/svg"><metadata></metadata><defs><font id="Founder:FZLanTingHeiS-RC-GB	Regular" horiz-adv-x="256"><font-face font-family="FZLanTingHeiS-RC-GB" font-weight="400" font-stretch="normal" units-per-em="256" panose-1="2 1 6 0 1 1 1 1 1 1" ascent="195" descent="-72" x-height="1" bbox="5 7 250 192" underline-thickness="12" underline-position="2" unicode-range="U+002d-9996" /><missing-glyph horiz-adv-x="256" d="M53 177 l-6 -111 l-17 0 l-5 111 l28 0 ZM51 25 l-25 0 l0 21 l25 0 l0 -21 Z" /><glyph glyph-name="" unicode="-" d="M153 94 l-138 0 l0 15 l138 0 l0 -15 Z" /><glyph glyph-name="" unicode="." d="M57 26 l-31 0 l0 23 l31 0 l0 -23 Z" /><glyph glyph-name="" unicode="&#x4e1c;" d="M12 165 l58 0 l16 25 l20 -3 l-13 -22 l151 0 l0 -13 l-160 0 l-30 -49 l72 0 l0 40 l20 0 l0 -40 l87 0 l0 -13 l-87 0 l0 -53 q1 -23 -32 -24 q-19 0 -35 0 q-1 11 -4 18 q7 -1 33 -1 q19 -1 18 14 l0 46 l-95 0 l0 13 l31 49 l-50 0 l0 13 ZM183 77 q23 -13 67 -43 l-14 -13 q-30 23 -65 45 l12 11 ZM67 79 l15 -10 q-26 -23 -63 -51 q-3 4 -12 11 q32 24 60 50 Z" /><glyph glyph-name="" unicode="&#x4e2d;" d="M24 150 l94 0 l0 40 l20 0 l0 -40 l94 0 l0 -82 l-19 0 l0 9 l-75 0 l0 -68 l-20 0 l0 68 l-75 0 l0 -9 l-19 0 l0 82 ZM213 137 l-75 0 l0 -46 l75 0 l0 46 ZM43 137 l0 -46 l75 0 l0 46 l-75 0 Z" /><glyph glyph-name="" unicode="&#x4ea7;" d="M177 153 l19 -8 q-7 -8 -28 -29 l72 0 l0 -12 l-188 0 l0 -13 q2 -53 -32 -82 q-6 8 -13 12 q27 24 26 70 l0 25 l114 0 q19 21 30 37 ZM133 190 q7 -14 10 -22 l104 0 l0 -12 l-234 0 l0 12 l109 0 q-1 4 -5 11 q-1 4 -2 6 l18 5 ZM78 154 q17 -16 27 -27 l-15 -10 q-2 2 -8 9 q-13 14 -18 19 l14 9 Z" /><glyph glyph-name="" unicode="&#x4ef7;" d="M58 189 l19 -5 q-9 -21 -19 -39 l0 -135 l-18 0 l0 104 q-12 -18 -25 -32 q-3 9 -8 17 q34 42 51 90 ZM152 191 l21 -3 l-4 -6 q28 -35 80 -55 q-6 -8 -12 -17 q-54 27 -78 60 q-32 -37 -78 -61 q-2 2 -6 7 q-4 5 -6 7 q55 26 83 68 ZM113 118 l19 0 l0 -24 q4 -60 -40 -85 l-1 1 q-5 4 -15 9 q42 22 37 75 l0 24 ZM184 118 l18 0 l0 -107 l-18 0 l0 107 Z" /><glyph glyph-name="" unicode="&#x4f73;" d="M152 101 l19 0 l0 -24 l66 0 l0 -13 l-66 0 l0 -32 l74 0 l0 -13 l-169 0 l0 13 l76 0 l0 32 l-64 0 l0 13 l64 0 l0 24 ZM152 188 l19 0 l0 -28 l63 0 l0 -13 l-63 0 l0 -28 l72 0 l0 -13 l-163 0 l0 13 l72 0 l0 28 l-63 0 l0 13 l63 0 l0 28 ZM63 190 l19 -5 q-10 -21 -22 -41 l0 -133 l-19 0 l0 105 q-12 -18 -25 -31 q-5 13 -8 18 q34 35 55 87 Z" /><glyph glyph-name="" unicode="&#x52bf;" d="M197 44 q2 12 2 21 l-81 0 q-7 -42 -96 -55 q-4 7 -11 14 q83 12 88 41 l-74 0 l0 13 l77 0 q0 5 0 11 l19 0 q0 -2 -0.5 -6 q-0.5 -4 -0.5 -5 l99 0 q0 -10 -3 -37 q0 -26 -45 -25 q-28 0 -40 0 q-3 13 -5 17 q3 0 13 -1 q18 -1 30 -1 q29 -1 28 13 ZM142 190 l17 0 l0 -24 l50 0 q0 -40 2 -48 q2 -15 10 -14 q9 -2 11 28 q4 -2 16 -5 q-1 -19 -6 -28 q-5 -12 -21 -12 q-21 0 -26 23 q-4 19 -4 44 l-32 0 q-1 -14 -7 -26 q4 -2 12 -5 q4 -2 19 -9 l-10 -12 q-4 2 -13 6 q-11 5 -16 8 q-18 -18 -50 -30 q-2 2 -5.5 6.5 q-3.5 4.5 -5.5 6.5 q33 11 46 24 q-4 1 -11 4.5 q-7 3.5 -10 4.5 l8 10 q6 -1 20 -8 q5 9 5 20 l-28 0 l0 12 l29 0 l0 24 ZM55 110 l0 10 q-3 0 -8 -1 q-21 -3 -29 -5 l-4 13 q11 2 41 6 l0 20 l-39 0 l0 12 l39 0 l0 25 l17 0 l0 -25 l29 0 l0 -12 l-29 0 l0 -18 q22 4 30 5 q0 -7 0 -13 q-3 0 -9 -1 q-13 -2 -21 -3 l0 -17 q2 -20 -25 -19 q-7 -1 -23 -1 q-1 12 -3 15 q1 0 8 0 q12 -1 16 -1 q11 -2 10 10 Z" /><glyph glyph-name="" unicode="&#x5357;" d="M118 188 l19 0 l0 -20 l108 0 l0 -13 l-108 0 l0 -19 l95 0 l0 -103 q1 -21 -29 -21 q-16 0 -38 0 q-2 7 -5 16 q12 -1 36 -1 q18 0 17 11 l0 86 l-168 0 l0 -113 l-19 0 l0 125 l92 0 l0 19 l-108 0 l0 13 l108 0 l0 20 ZM55 62 l64 0 l0 20 l-57 0 l0 12 l37 0 q-9 11 -20 20 l13 9 q3 -3 8 -8 q10 -9 14 -14 l-12 -7 l36 0 q6 6 16 17 q6 7 9 11 l19 -4 q-12 -12 -24 -24 l37 0 l0 -12 l-57 0 l0 -20 l65 0 l0 -12 l-65 0 l0 -35 l-19 0 l0 35 l-64 0 l0 12 Z" /><glyph glyph-name="" unicode="&#x548c;" d="M131 168 l106 0 l0 -152 l-19 0 l0 18 l-69 0 l0 -18 l-18 0 l0 152 ZM149 155 l0 -108 l69 0 l0 108 l-69 0 ZM8 135 l47 0 l0 28 q-8 -1 -22 -2 q-12 -2 -17 -2 q-3 11 -5 13 q54 4 98 13 l5 -13 q-18 -4 -40 -7 l0 -30 l44 0 l0 -12 l-44 0 l0 -24 l8 8 q25 -17 38 -27 l-12 -12 q-7 6 -23 18 q-8 6 -11 9 l0 -85 l-19 0 l0 88 q-13 -27 -39 -52 q-5 8 -10 15 q32 27 46 62 l-44 0 l0 12 Z" /><glyph glyph-name="" unicode="&#x56ed;" d="M22 180 l212 0 l0 -170 l-18 0 l0 9 l-176 0 l0 -9 l-18 0 l0 170 ZM40 167 l0 -135 l176 0 l0 135 l-176 0 ZM140 69 l0 33 l-32 0 q3 -45 -50 -64 q-1 1 -2 3 q-6 8 -9 11 q48 14 44 50 l-40 0 l0 12 l154 0 l0 -12 l-48 0 l0 -30 q-1 -13 13 -12 l6 0 q12 0 13 10 q2 3 3 15 q1 3 1 4 q8 -4 16 -6 q0 -1 -1 -4 q-1 -11 -3 -16 q-4 -18 -28 -17 l-12 0 q-27 -1 -25 23 ZM63 147 l130 0 l0 -12 l-130 0 l0 12 Z" /><glyph glyph-name="" unicode="&#x56fd;" d="M22 180 l212 0 l0 -170 l-18 0 l0 9 l-175 0 l0 -9 l-19 0 l0 170 ZM41 167 l0 -135 l175 0 l0 135 l-175 0 ZM61 112 l58 0 l0 25 l-63 0 l0 12 l144 0 l0 -12 l-64 0 l0 -25 l59 0 l0 -12 l-59 0 l0 -36 l68 0 l0 -12 l-152 0 l0 12 l67 0 l0 36 l-58 0 l0 12 ZM162 97 q17 -13 23 -20 l-13 -9 q-3 3 -10.5 10 q-7.5 7 -11.5 10 l12 9 Z" /><glyph glyph-name="" unicode="&#x5747;" d="M135 190 l20 -5 q-6 -12 -13 -24 l95 0 q0 -13 -1 -36 q-2 -62 -4 -77 q2 -34 -46 -33 q-27 -1 -39 0 q-1 3 -2 12 q-1 4 -1 6 q14 -2 40 -2 q30 -1 30 21 q3 65 3 96 l-83 0 q-9 -16 -26 -39 q-4 2 -11 5 q-4 3 -6 3 q29 36 44 73 ZM95 73 q1 -7 4 -14 q-27 -7 -85 -26 l-6 15 q15 5 35 9 l0 72 l-33 0 l0 13 l33 0 l0 46 l18 0 l0 -46 l31 0 l0 -13 l-31 0 l0 -67 q7 2 20 6 q9 3 14 5 ZM202 91 q3 -6 7 -12 q-12 -4 -52 -17 q-35 -11 -48 -16 l-8 14 q46 13 101 31 ZM138 129 q3 -2 8 -5 q22 -15 33 -24 l-15 -12 q-17 17 -38 31 l12 10 Z" /><glyph glyph-name="" unicode="&#x57ce;" d="M247 156 l0 -12 l-60 0 q1 -9 1 -16 q3 -34 8 -53 q16 21 28 47 l17 -6 q-18 -34 -40 -59 q5 -14 18 -27 q7 -5 10 1 q3 15 5 32 q8 -3 16 -5 q-1 -13 -5 -30 q-4 -14 -20 -15 q-13 0 -21 8 q-9 10 -16 23 q-22 -20 -42 -32 q-10 10 -12 11 q29 18 48 37 q-8 26 -12 69 q0 9 -1 15 l-61 0 l0 -29 l48 0 q0 -45 -1 -56 q-1 -20 -27 -21 q-3 0 -10.5 -0.5 q-7.5 -0.5 -9.5 -0.5 q-1 5 -3 12 q-1 3 -1 4 q2 0 6 0 q8 -1 13 -1 q15 -1 15 11 q0 5 0 18 q1 15 1 22 l-31 0 q2 -63 -36 -93 q-2 2 -7 5.5 q-5 3.5 -6 4.5 q20 19 25.5 34.5 q5.5 15.5 5.5 51.5 l0 50 l79 0 q-1 17 -1 33 l18 0 q0 -19 1 -33 l60 0 ZM80 78 q0 -6 0 -15 q-35 -7 -71 -16 l-3 15 q15 3 30 6 l0 62 l-28 0 l0 13 l28 0 l0 44 l18 0 l0 -44 l26 0 l0 -13 l-26 0 l0 -58 q12 3 26 6 ZM207 187 q3 -2 9 -5 q14 -8 21 -13 l-11 -10 q-2 2 -7 5 q-13 9 -21 14 l9 9 Z" /><glyph glyph-name="" unicode="&#x592a;" d="M12 144 l104 0 l2 45 l19 0 l-1 -45 l108 0 l0 -14 l-106 0 q16 -69 108 -99 q-3 -3 -15 -17 q-87 36 -104 98 q-7 -31 -35 -56 l14 10 q7 -6 4 -4 q29 -23 39 -32 l-16 -12 q-16 17 -41 38 q-22 -22 -70 -46 q-1 2 -4 5 q-8 10 -10 11 q99 41 106 104 l-102 0 l0 14 Z" /><glyph glyph-name="" unicode="&#x5957;" d="M13 65 l47 0 l0 61 q-18 -9 -44 -16 q-6 10 -10 13 q56 16 83 35 l-73 0 l0 11 l87 0 q10 10 17 22 l17 -4 q-6 -9 -13 -18 l116 0 l0 -11 l-77 0 q26 -20 86 -30 q-6 -7 -10 -14 q-33 7 -54 16 l0 -5 l-107 0 l0 -12 l126 0 l0 -11 l-126 0 l0 -13 l127 0 l0 -11 l-127 0 l0 -13 l166 0 l0 -12 l-139 0 q-20 -14 -36 -22 q17 0 75 2 q24 1 35 1 q-2 1 -6 4 q-6 4 -10 6 l12 9 q25 -16 49 -34 l-14 -10 q-2 3 -7.5 7.5 q-5.5 4.5 -8.5 6.5 q-53 -1 -130 -5 q-16 0 -22 -1 l-6 13 q8 2 19 7 q12 7 25 16 l-67 0 l0 12 ZM113 158 q-12 -12 -30 -21 l89 0 q-20 11 -29 21 l-30 0 Z" /><glyph glyph-name="" unicode="&#x5b89;" d="M108 146 l17 -6 q-9 -14 -21 -28 l144 0 l0 -13 l-51 0 q-16 -30 -42 -48 q13 -4 38.5 -12.5 q25.5 -8.5 37.5 -12.5 l-10 -14 q-11 4 -32 12 q-34 11 -51 17 q-44 -21 -111 -31 q-4 8 -9 15 q61 8 100 24 q-13 4 -39 13 q-19 7 -29 10 q1 1 3 3 q8 9 20 24 l-65 0 l0 13 l75 0 q6 8 18 24 q5 7 7 10 ZM129 192 q9 -12 16 -25 l-12 -4 l104 0 l0 -35 l-19 0 l0 21 l-179 0 l0 -21 l-19 0 l0 35 l106 0 q-6 10 -13 22 l16 7 ZM76 77 q8 -2 23 -8 q24 -7 36 -11 q30 17 41 41 l-82 0 q-9 -12 -18 -22 Z" /><glyph glyph-name="" unicode="&#x5b8f;" d="M99 148 l20 -5 q-1 -2 -3 -6 q-4 -7 -11 -18 l140 0 l0 -14 l-148 0 q-25 -41 -79 -84 q-3 4 -13 14 q45 32 71 70 l-64 0 l0 14 l72 0 q8 13 15 29 ZM180 76 q19 -17 53 -50 q-21 21 6 -5 l-17 -10 q-6 6 -13 13 q-57 -1 -113 -5 q-8 0 -22 -3 l-8 14 q9 4 18 10 q31 26 51 59 l19 -8 q-29 -36 -53 -57 q12 0 37 1 q40 2 58 2 q-15 15 -30 30 l14 9 ZM129 192 q2 -3 6 -11 q6 -9 8 -12 l-14 -4 l109 0 l0 -31 l-19 0 l0 18 l-181 0 l0 -18 l-19 0 l0 31 l104 0 q-1 2 -4 7 q-6 10 -8 14 l18 6 Z" /><glyph glyph-name="" unicode="&#x5ba2;" d="M91 156 l15 -7 q-1 -1 -4.5 -4 q-3.5 -3 -5.5 -5 l109 0 l0 -13 q-23 -18 -52 -29 q34 -9 95 -10 q-1 -2 -3 -5 q-4 -6 -6 -10 q-72 4 -109 17 q-46 -14 -115 -21 q-1 3 -5 10 q-1 3 -2 4 q71 6 101 15 q-20 9 -38 23 q-17 -13 -38 -23 q-5 5 -11 11 q45 22 69 47 ZM50 70 l157 0 l0 -59 l-18 0 l0 8 l-121 0 l0 -8 l-18 0 l0 59 ZM133 191 q5 -15 7 -22 l97 0 l0 -34 l-18 0 l0 21 l-181 0 l0 -21 l-18 0 l0 34 l102 0 q0 1 -1 4 q-2 6 -6 15 l18 3 ZM68 58 l0 -27 l121 0 l0 27 l-121 0 ZM180 128 l-94 0 q19 -15 45 -24 q28 9 49 24 Z" /><glyph glyph-name="" unicode="&#x5c45;" d="M135 129 l18 0 l0 -18 l90 0 l0 -13 l-90 0 l0 -22 l67 0 l0 -66 l-19 0 l0 9 l-113 0 l0 -9 l-18 0 l0 66 l65 0 l0 22 l-83 0 q-1 -57 -31 -88 q-7 6 -15 12 q30 28 28 90 l0 69 l193 0 l0 -48 l-174 0 l0 -18 l0 -4 l82 0 l0 18 ZM53 168 l0 -23 l156 0 l0 23 l-156 0 ZM88 64 l0 -32 l113 0 l0 32 l-113 0 Z" /><glyph glyph-name="" unicode="&#x5e02;" d="M11 162 l113 0 q-7 12 -16 22 l16 8 q6 -6 15 -17 q3 -4 5 -6 l-14 -7 l116 0 l0 -14 l-108 0 l0 -25 l87 0 l0 -66 q1 -23 -30 -24 q-13 -1 -33 -1 q-2 12 -4 17 q13 -1 32 -1 q17 -1 16 14 l0 48 l-68 0 l0 -100 l-20 0 l0 100 l-67 0 l0 -81 l-19 0 l0 94 l86 0 l0 25 l-107 0 l0 14 Z" /><glyph glyph-name="" unicode="&#x5f53;" d="M32 78 l177 0 l0 31 l-185 0 l0 12 l94 0 l0 68 l20 0 l0 -68 l91 0 l0 -111 l-20 0 l0 10 l-192 0 l0 13 l192 0 l0 32 l-177 0 l0 13 ZM210 180 l16 -11 q-21 -18 -52 -39 l-14 11 q21 12 50 39 ZM46 182 q22 -18 47 -40 l-14 -12 q-13 12 -41 36 q-3 3 -5 4 l13 12 Z" /><glyph glyph-name="" unicode="&#x623f;" d="M136 192 q2 -4 7 -11 q5 -7 6 -9 l-11 -4 l93 0 l0 -43 l-178 0 l0 -22 q3 -61 -33 -94 q-3 3 -10 8 q-3 3 -5 4 q32 28 29 82 l0 65 l97 0 q-5 10 -11 18 l16 6 ZM199 46 q2 10 2 18 l-81 0 q-6 -34 -53 -55 q-2 2 -6 6.5 q-4 4.5 -6 6.5 q31 14 39 28 q10 12 10 44 l-43 0 l0 13 l81 0 q-3 6 -6 14 l18 3 q1 -1 2 -4.5 q1 -3.5 5 -12.5 l85 0 l0 -13 l-123 0 q0 -9 -1 -18 l99 0 q-1 -20 -3 -34 q-2 -29 -40 -27 q-18 0 -35 0 q0 1 0 2 q-1 6 -4 14 q9 -1 37 -1 q22 -1 23 16 ZM53 156 l0 -19 l159 0 l0 19 l-159 0 Z" /><glyph glyph-name="" unicode="&#x6570;" d="M169 191 l17 -4 q-4 -17 -12 -32 l73 0 l0 -13 l-16 0 q-7 -54 -31 -84 q18 -17 50 -32 q-7 -8 -12 -15 q-31 16 -50 34 q-20 -19 -53 -37 q-9 11 -13 14 q33 16 54 36 q-16 21 -24 58 q-5 -8 -11 -14 q-2 3 -11 12 q29 34 39 77 ZM10 85 l38 0 q2 3 6 9 q3 3 4 5 l16 -5 q-3 -4 -7 -9 l61 0 q-3 -29 -28 -44 q12 -4 25 -9 l-9 -13 q-16 7 -33 13 q-26 -12 -68 -22 q-1 1 -2 4 q-5 8 -6 10 q34 5 58 15 q-21 8 -43 15 q8 8 17 19 l-29 0 l0 12 ZM93 127 q1 0 3 -1 q20 -9 36 -18 l-10 -11 q-2 1 -6 4 q-18 10 -29 16 l0 -18 l-17 0 l0 27 q-17 -17 -52 -32 q-2 4 -9 11 q31 14 53 30 l-49 0 l0 12 l57 0 l0 41 l17 0 l0 -41 l50 0 l0 -12 l-50 0 l0 -16 l6 8 ZM188 71 q19 25 25 71 l-45 0 q0 -2 -3 -5 q7 -42 23 -66 ZM45 59 q18 -6 36 -12 q23 13 27 26 l-50 0 q-8 -9 -13 -14 ZM126 181 l12 -9 q-17 -13 -31 -20 l-10 10 q13 7 29 19 ZM29 182 q6 -5 18 -13 q8 -5 10 -7 l-12 -10 q-8 7 -27 21 l11 9 Z" /><glyph glyph-name="" unicode="&#x65b9;" d="M12 158 l113 0 q-4 9 -13 27 l17 6 q9 -13 15 -27 l-15 -6 l116 0 l0 -14 l-147 0 q0 -14 -2 -28 l117 0 q-1 -18 -4 -50 q-1 -9 -1 -13 q0 -39 -50 -37 q-24 0 -43 0 q0 9 -3 18 q12 -1 45 -1 q31 -2 31 25 q3 23 3 45 l-96 0 q-4 -60 -74 -94 q-4 4 -10 10 q-2 3 -3 4 q67 32 67 84 q3 18 3 37 l-66 0 l0 14 Z" /><glyph glyph-name="" unicode="&#x65e5;" d="M42 178 l0 -166 l20 0 l0 13 l132 0 l0 -13 l21 0 l0 166 l-173 0 ZM194 109 l-132 0 l0 55 l132 0 l0 -55 ZM194 39 l-132 0 l0 57 l132 0 l0 -57 Z" /><glyph glyph-name="" unicode="&#x6708;" d="M193 44 l0 28 l-127 0 q-6 -36 -36 -65 q-3 3 -8.5 7 q-5.5 4 -7.5 6 q39 29 36 99 l0 62 l161 0 l0 -140 q0 -27 -31 -28 q-25 0 -39 0 q-1 8 -4 17 q4 0 16 0 q16 -1 23 -1 q18 -1 17 15 ZM69 118 q0 -18 -1 -33 l125 0 l0 36 l-124 0 l0 -3 ZM69 168 l0 -35 l124 0 l0 35 l-124 0 Z" /><glyph glyph-name="" unicode="&#x671f;" d="M218 38 l0 36 l-52 0 q-2 -33 -30 -66 q-1 1 -4 3 q-5 5 -10 9 q18 19 23 36 q5 17 5 58 l0 68 l86 0 l0 -147 q0 -21 -24 -22 q-3 0 -9 0 q-15 -1 -21 0 q0 1 -1 4 q-1 10 -2 12 q2 0 9 0 q13 -1 18 -1 q13 0 12 10 ZM100 187 l18 0 l0 -23 l19 0 l0 -12 l-19 0 l0 -84 l19 0 l0 -12 l-128 0 l0 12 l22 0 l0 84 l-19 0 l0 12 l19 0 l0 22 l18 0 l0 -22 l51 0 l0 23 ZM168 114 q0 -15 -1 -28 l51 0 l0 36 l-50 0 l0 -8 ZM168 169 l0 -35 l50 0 l0 35 l-50 0 ZM49 88 l0 -20 l51 0 l0 20 l-51 0 ZM49 120 l0 -20 l51 0 l0 20 l-51 0 ZM49 152 l0 -20 l51 0 l0 20 l-51 0 ZM50 52 l14 -9 q-27 -22 -45 -33 q-2 2 -6 6.5 q-4 4.5 -5 6.5 q23 14 42 29 ZM92 53 q5 -3 15 -9 q12 -7 17 -10 l-12 -12 q-12 9 -30 21 l10 10 Z" /><glyph glyph-name="" unicode="&#x6c5f;" d="M73 39 l78 0 l0 119 l-63 0 l0 14 l150 0 l0 -14 l-68 0 l0 -119 l78 0 l0 -14 l-175 0 l0 14 ZM50 88 q1 -1 4 -2 q8 -4 14 -6 q-10 -19 -30 -61 q-3 -5 -4 -8 l-19 9 q21 36 35 68 ZM19 141 q13 -6 47 -24 l-12 -14 q-12 8 -36 20 q-6 3 -9 5 l10 13 ZM30 187 q25 -12 46 -24 l-12 -14 q-14 10 -36 23 q-6 3 -8 4 l10 11 Z" /><glyph glyph-name="" unicode="&#x6da6;" d="M222 40 l0 126 l-82 0 l0 12 l100 0 l0 -142 q0 -23 -30 -23 q-20 0 -32 0 q-1 10 -3 16 q6 -1 34 -1 q14 -1 13 12 ZM112 105 l38 0 l0 28 l-42 0 l0 11 l100 0 l0 -11 l-42 0 l0 -28 l39 0 l0 -11 l-39 0 l0 -31 l45 0 l0 -12 l-106 0 l0 12 l45 0 l0 31 l-38 0 l0 11 ZM77 157 l18 0 l0 -147 l-18 0 l0 147 ZM39 88 q2 -2 13 -5 q4 -1 6 -2 q-14 -36 -23 -70 l-21 6 q13 31 25 71 ZM29 187 q4 -2 13 -8 q20 -13 28 -18 l-12 -12 q-5 4 -20 14 q-15 10 -21 13 l12 11 ZM19 140 q5 -3 16 -9 q16 -9 25 -14 l-12 -14 q-29 20 -40 26 l11 11 ZM102 189 q14 -12 27 -23 l-15 -9 l-6 6 q-12 13 -19 18 l13 8 Z" /><glyph glyph-name="" unicode="&#x6e90;" d="M118 143 l35 0 q1 3 2.5 10.5 q1.5 7.5 2.5 11.5 l-60 0 l0 -50 q3 -71 -35 -107 q-6 5 -15 12 q20 20 26 38.5 q6 18.5 6 56.5 l0 62 l168 0 l0 -12 l-71 0 q-1 -3 -4 -10 q-2 -9 -4 -12 l61 0 l0 -70 l-49 0 l0 -40 q3 -21 -25 -22 q-14 0 -21 0 q-2 12 -3 15 q4 -1 20 -1 q13 -1 12 10 l0 38 l-46 0 l0 70 ZM134 132 l0 -18 l80 0 l0 18 l-80 0 ZM134 103 l0 -19 l80 0 l0 19 l-80 0 ZM36 90 q4 -3 17 -7 q-2 -6 -9 -29 q-10 -30 -13 -42 l-18 7 q17 45 23 71 ZM208 66 q23 -19 42 -37 l-13 -11 q-17 18 -41 39 l12 9 ZM133 66 l13 -10 q-18 -19 -41 -39 l-12 11 q29 24 40 38 ZM19 140 q9 -5 33 -18 q6 -4 9 -6 l-11 -13 q-14 10 -41 26 l10 11 ZM29 187 q21 -12 40 -25 l-12 -12 q-23 17 -38 26 l10 11 Z" /><glyph glyph-name="" unicode="&#x7545;" d="M217 51 q2 14 3 45 q1 7 1 11 l-21 0 q-7 -60 -70 -98 q-6 8 -14 13 q58 31 68 85 l-26 0 q-9 -41 -56 -70 q-3 6 -12 12 q42 23 51 58 l-26 0 l0 14 l82 44 l-80 0 l0 13 l109 0 l0 -13 l-84 -45 l98 0 q-4 -50 -5 -69 q-1 -38 -39 -36 q-16 -1 -29 -1 q0 9 -4 17 q9 -1 31.5 -1.5 q22.5 -0.5 22.5 21.5 ZM53 189 l16 0 l0 -27 l36 0 l0 -97 l-36 0 l0 -53 l-16 0 l0 53 l-20 0 l0 -10 l-16 0 l0 107 l36 0 l0 27 ZM33 108 l0 -31 l20 0 l0 31 l-20 0 ZM69 77 l20 0 l0 31 l-20 0 l0 -31 ZM33 150 l0 -31 l20 0 l0 31 l-20 0 ZM89 150 l-20 0 l0 -31 l20 0 l0 31 Z" /><glyph glyph-name="" unicode="&#x82b1;" d="M221 127 l13 -11 q-35 -25 -78 -44 l0 -27 q-1 -15 18 -14 l27 0 q21 0 23 11 q2 6 4 25 q0 3 0 4 q8 -3 18 -5 q1 0 2 0 q-2 -16 -5 -29 q-4 -21 -39 -21 l-31 0 q-38 -1 -36 25 l0 22 q-23 -9 -47 -18 q-5 9 -10 15 q30 9 57 20 l0 52 l19 0 l0 -44 q37 18 65 39 ZM161 189 l19 0 l0 -22 l67 0 l0 -13 l-67 0 l0 -18 l-19 0 l0 18 l-66 0 l0 -15 l-19 0 l0 15 l-66 0 l0 13 l66 0 l0 22 l19 0 l0 -22 l66 0 l0 22 ZM76 137 l18 -5 q-7 -9 -20 -24 q-2 -2 -3 -3 l0 -94 l-19 0 l0 76 q-16 -15 -35 -28 q-4 8 -10 14 q42 25 69 64 Z" /><glyph glyph-name="" unicode="&#x8d70;" d="M55 92 l19 -3 q-3 -13 -8 -24 q21 -27 55 -30 l0 64 l19 0 l0 -23 l81 0 l0 -13 l-81 0 l0 -29 q55 -2 108 1 q-2 -4 -5 -13 q-1 -3 -2 -4 q-85 0 -110 1 q-47 0 -72 30 q-10 -18 -36 -39 q-10 10 -14 13 q40 27 46 69 ZM118 189 l20 0 l0 -28 l81 0 l0 -13 l-81 0 l0 -30 l102 0 l0 -13 l-224 0 l0 13 l102 0 l0 30 l-81 0 l0 13 l81 0 l0 28 Z" /><glyph glyph-name="" unicode="&#x8d85;" d="M9 124 l49 0 l0 26 l-40 0 l0 13 l40 0 l0 26 l18 0 l0 -26 l37 0 l0 -13 l-37 0 l0 -26 l40 0 l0 -13 l-33 0 l0 -29 l35 0 l0 -12 l-35 0 l0 -34 q18 -5 43 -5 q21 -1 64 0 q47 0 58 1 q-1 -3 -3 -9 q-2 -4 -3 -7 q-1 0 -8 0 q-91 -1 -116 0 q-58 2 -80 33 q-7 -24 -19 -40 q-8 14 -11 17 q19 25 21 74 l18 -1 q-1 -17 -4 -32 q10 -15 22 -23 l0 67 l-56 0 l0 13 ZM131 105 l101 0 l0 -59 l-101 0 l0 59 ZM215 148 q1 18 1 20 l-46 0 q0 -36 -41 -58 q-6 10 -10 14 q33 13 34 44 l-34 0 l0 13 l116 0 q0 -3 -1 -12 q-1 -14 -2 -23 q-1 -29 -32 -28 l-28 0 q0 2 -1 5 q-1 8 -2 10 q2 0 8 0 q13 -1 20 -1 q19 -1 18 16 ZM148 93 l0 -35 l67 0 l0 35 l-67 0 Z" /><glyph glyph-name="" unicode="&#x90fd;" d="M133 170 l15 -7 q-16 -19 -34 -35 l36 0 l0 -12 l-51 0 q-13 -10 -29 -19 l62 0 l0 -86 l-17 0 l0 11 l-61 0 l0 -11 l-18 0 l0 67 q-4 -2 -12 -7 q-5 -2 -8 -4 q-1 1 -3 4 q-5 7 -7 9 q38 17 68 36 l-65 0 l0 12 l53 0 l0 24 l-41 0 l0 12 l41 0 l0 25 l17 0 l0 -25 l35 0 l0 -12 l-35 0 l0 -24 l12 0 q23 17 42 42 ZM228 70 q1 21 -35 44 l30 52 l-47 0 l0 -156 l-18 0 l0 168 l83 0 l0 -14 l-28 -48 q33 -21 32 -47 q0 -32 -36 -32 q-18 0 -25 0 q0 1 0 2 q-1 6 -4 14 q3 0 10 0 q10 -1 16 -1 q23 0 22 18 ZM54 54 l0 -20 l61 0 l0 20 l-61 0 ZM54 85 l0 -20 l61 0 l0 20 l-61 0 Z" /><glyph glyph-name="" unicode="&#x91cf;" d="M37 108 l183 0 l0 -51 l-84 0 l0 -11 l93 0 l0 -9 l-93 0 l0 -11 l112 0 l0 -10 l-240 0 l0 10 l112 0 l0 11 l-93 0 l0 9 l93 0 l0 11 l-83 0 l0 51 ZM39 182 l179 0 l0 -47 l-179 0 l0 47 ZM10 126 l237 0 l0 -10 l-237 0 l0 10 ZM55 154 l0 -10 l146 0 l0 10 l-146 0 ZM55 173 l0 -10 l146 0 l0 10 l-146 0 ZM136 78 l0 -12 l67 0 l0 12 l-67 0 ZM54 78 l0 -12 l66 0 l0 12 l-66 0 ZM203 98 l-67 0 l0 -11 l67 0 l0 11 ZM54 98 l0 -11 l66 0 l0 11 l-66 0 Z" /><glyph glyph-name="" unicode="&#x94c1;" d="M122 177 l18 -4 q-1 -5 -5 -15 q-1 -4 -2 -6 l34 0 q1 14 1 37 l18 0 q0 -18 0 -37 l54 0 l0 -14 l-54 0 q1 -19 -2 -36 l64 0 l0 -13 l-61 0 q15 -43 62 -63 q-6 -6 -12 -14 q-47 24 -61 64 q-13 -40 -72 -67 q-5 8 -11 15 q59 24 69 65 l-61 0 l0 13 l64 0 q1 3 1.5 9 q0.5 6 0.5 9 q0 8 0 18 l-39 0 q-4 -13 -12 -27 q-3 1 -12 4 q-4 1 -6 2 q17 29 24 60 ZM13 90 l31 0 l0 24 l-17 0 l0 13 l63 0 l0 -13 l-27 0 l0 -24 l32 0 l0 -13 l-32 0 l0 -37 q6 3 17.5 8.5 q11.5 5.5 16.5 8.5 q0 -7 1 -16 q-8 -3 -26 -12 q-9 -4 -12.5 -6 q-3.5 -2 -7.5 -5 q-3 -1 -4 -2 l-10 13 q6 6 6 13 l0 35 l-31 0 l0 13 ZM44 190 l18 -5 q-1 -2 -2 -5 q-6 -11 -10 -17 l45 0 l0 -13 l-53 0 q-9 -15 -21 -30 q-8 8 -13 12 q25 27 36 58 Z" /><glyph glyph-name="" unicode="&#x9633;" d="M236 178 l0 -167 l-19 0 l0 12 l-88 0 l0 -12 l-18 0 l0 167 l125 0 ZM77 75 q1 18 -23 40 q17 40 21 53 l-37 0 l0 -158 l-18 0 l0 170 l74 0 l0 -12 q-10 -28 -22 -51 q24 -21 24 -44 q-2 -28 -31 -31 q-7 0 -19 0 q-1 4 -4 10 q-1 5 -2 7 q13 -1 23 0 q14 0 14 16 ZM129 95 l0 -58 l88 0 l0 58 l-88 0 ZM129 165 l0 -56 l88 0 l0 56 l-88 0 Z" /><glyph glyph-name="" unicode="&#x9645;" d="M74 75 q0 23 -24 41 l20 49 l-33 0 l0 -155 l-18 0 l0 169 l70 0 l0 -13 l-20 -47 q24 -20 23.5 -45.5 q-0.5 -25.5 -25.5 -28.5 q-7 -1 -24 -1 q-1 9 -4 16 q13 0 21 0 q15 0 14 15 ZM158 39 l0 76 l-68 0 l0 14 l156 0 l0 -14 l-69 0 l0 -79 q1 -23 -30 -23 q-15 0 -28 0 q0 6 -4 16 q15 -1 28 -1 q16 -1 15 11 ZM102 174 l130 0 l0 -13 l-130 0 l0 13 ZM122 96 l17 -6 q-19 -36 -39 -63 q-3 2 -10 5 q-4 3 -6 4 q20 23 38 60 ZM209 96 q1 -1 3 -4 q24 -35 36 -55 l-17 -9 q-21 38 -36 60 l14 8 Z" /><glyph glyph-name="" unicode="&#x9875;" d="M40 143 l68 0 l9 25 l-104 0 l0 12 l231 0 l0 -12 l-107 0 l-10 -25 l91 0 l0 -87 l-19 0 l0 74 l-140 0 l0 -74 l-19 0 l0 87 ZM120 120 l18 0 l0 -18 q0 -17 -5 -33 q46 -19 104 -43 l-10 -15 q-11 5 -31 14 q-46 22 -70 32 q-22 -32 -108 -48 q-2 4 -6 10 q-3 4 -4 6 q121 15 112 76 l0 19 Z" /><glyph glyph-name="" unicode="&#x9996;" d="M39 131 l70 0 q0 2 1 6 q2 8 3 13 l-102 0 l0 13 l75 0 q-14 14 -21 20 l14 9 q16 -13 23 -21 l-13 -8 l61 0 q15 16 26 29 l16 -9 q-4 -5 -14 -14 q-4 -4 -6 -6 l74 0 l0 -13 l-113 0 q-3 -11 -6 -19 l91 0 l0 -121 l-19 0 l0 11 l-141 0 l0 -11 l-19 0 l0 121 ZM58 119 l0 -21 l141 0 l0 21 l-141 0 ZM58 54 l0 -20 l141 0 l0 20 l-141 0 ZM58 86 l0 -20 l141 0 l0 20 l-141 0 Z" /></font>
</defs>
</svg>
